<mxfile host="app.diagrams.net" modified="2024-03-08T03:15:23.591Z" agent="Mozilla/5.0 (Macintosh; Intel Mac OS X 10.15; rv:123.0) Gecko/20100101 Firefox/123.0" version="24.0.2" etag="t2tp8s9FmNB3liCdF_Wt" type="github">
  <diagram name="Page-1" id="Sqdr8RHEKjuYtyh0Mfol">
    <mxGraphModel>
      <root>
        <mxCell id="0" />
        <mxCell id="1" parent="0" />
      </root>
    </mxGraphModel>
  </diagram>
</mxfile>
